<svg xmlns="http://www.w3.org/2000/svg" xmlns:xlink="http://www.w3.org/1999/xlink" width="500" zoomAndPan="magnify" viewBox="0 0 375 374.999991" height="500" preserveAspectRatio="xMidYMid meet" version="1.0"><defs><g/></defs><g fill="#000000" fill-opacity="1"><g transform="translate(2.966524, 214.566314)"><g><path d="M 41 -8.203125 L 41 -41 L 49.203125 -41 L 49.203125 -8.140625 L 41 -8.140625 L 41 0 L 16.40625 0 L 16.40625 -8.140625 L 8.203125 -8.140625 L 8.203125 -41 L 16.40625 -41 L 16.40625 -8.203125 Z M 41 -8.203125 "/></g></g></g><g fill="#000000" fill-opacity="1"><g transform="translate(60.374318, 214.566314)"><g><path d="M 16.40625 -24.609375 L 16.40625 0 L 8.203125 0 L 8.203125 -41 L 16.40625 -41 L 16.40625 -32.8125 L 24.671875 -32.8125 L 24.671875 -24.609375 L 32.875 -24.609375 L 32.875 -16.40625 L 41 -16.40625 L 41 -41 L 49.203125 -41 L 49.203125 0 L 41 0 L 41 -8.203125 L 32.8125 -8.203125 L 32.8125 -16.40625 L 24.609375 -16.40625 L 24.609375 -24.609375 Z M 16.40625 -24.609375 "/></g></g></g><g fill="#000000" fill-opacity="1"><g transform="translate(117.782113, 214.566314)"><g><path d="M 16.40625 0 L 8.203125 0 L 8.203125 -41 L 16.40625 -41 Z M 16.40625 0 "/></g></g></g><g fill="#000000" fill-opacity="1"><g transform="translate(142.385453, 214.566314)"><g><path d="M 41 -41 L 41 -32.8125 L 16.40625 -32.8125 L 16.40625 -24.609375 L 32.8125 -24.609375 L 32.8125 -16.40625 L 16.40625 -16.40625 L 16.40625 0 L 8.203125 0 L 8.203125 -41 Z M 41 -41 "/></g></g></g><g fill="#000000" fill-opacity="1"><g transform="translate(191.592135, 214.566314)"><g><path d="M 8.203125 0 L 8.203125 -41 L 16.40625 -41 L 16.40625 -8.203125 L 41 -8.203125 L 41 0 Z M 8.203125 0 "/></g></g></g><g fill="#000000" fill-opacity="1"><g transform="translate(240.798816, 214.566314)"><g><path d="M 16.40625 -32.8125 L 16.40625 -8.203125 L 41 -8.203125 L 41 -32.8125 Z M 16.34375 -8.203125 L 8.203125 -8.203125 L 8.203125 -32.875 L 16.40625 -32.875 L 16.40625 -41 L 41.0625 -41 L 41.0625 -32.8125 L 49.203125 -32.8125 L 49.203125 -8.140625 L 41 -8.140625 L 41 0 L 16.34375 0 Z M 16.34375 -8.203125 "/></g></g></g><g fill="#000000" fill-opacity="1"><g transform="translate(298.206611, 214.566314)"><g><path d="M 57.40625 -16.40625 L 57.40625 -41 L 65.609375 -41 L 65.609375 -16.34375 L 57.40625 -16.34375 L 57.40625 0 L 49.203125 0 L 49.203125 -8.203125 L 41 -8.203125 L 41 -16.34375 L 32.8125 -16.34375 L 32.8125 -8.203125 L 24.609375 -8.203125 L 24.609375 0 L 16.40625 0 L 16.40625 -16.34375 L 8.203125 -16.34375 L 8.203125 -41 L 16.40625 -41 L 16.40625 -16.40625 L 32.8125 -16.40625 L 32.8125 -32.8125 L 41 -32.8125 L 41 -16.40625 Z M 57.40625 -16.40625 "/></g></g></g></svg>