<svg xmlns="http://www.w3.org/2000/svg" xmlns:xlink="http://www.w3.org/1999/xlink" width="500" zoomAndPan="magnify" viewBox="0 0 375 374.999991" height="500" preserveAspectRatio="xMidYMid meet" version="1.0"><defs><g/></defs><g fill="#ffffff" fill-opacity="1"><g transform="translate(89.194335, 208.124986)"><g><path d="M 22.9375 -28.613281 L 22.9375 -11.496094 C 22.90625 -6.082031 19.792969 -3.667969 15.863281 -3.667969 C 12.488281 -3.667969 9.605469 -5.617188 9.605469 -10.476562 L 9.605469 -28.613281 L 4.570312 -28.613281 L 4.570312 -9.34375 C 4.570312 -2.910156 8.585938 0.554688 14.464844 0.554688 C 18.21875 0.554688 21.246094 -1.019531 23.023438 -3.785156 L 23.140625 0 L 27.972656 0 L 27.972656 -28.613281 Z M 22.9375 -28.613281 "/></g></g></g><g fill="#ffffff" fill-opacity="1"><g transform="translate(122.283676, 208.124986)"><g><path d="M 18.628906 -29.164062 C 14.929688 -29.164062 11.960938 -27.621094 10.15625 -24.945312 L 10.15625 -28.613281 L 5.121094 -28.613281 L 5.121094 0 L 10.15625 0 L 10.15625 -17.113281 C 10.1875 -22.5 13.332031 -24.914062 17.261719 -24.914062 C 20.605469 -24.914062 23.488281 -23.023438 23.488281 -18.132812 L 23.488281 0 L 28.523438 0 L 28.523438 -19.269531 C 28.523438 -25.699219 24.507812 -29.164062 18.628906 -29.164062 Z M 18.628906 -29.164062 "/></g></g></g><g fill="#ffffff" fill-opacity="1"><g transform="translate(155.40212, 208.124986)"><g><path d="M 7.683594 -35.335938 C 9.519531 -35.335938 11.058594 -36.878906 11.058594 -38.742188 C 11.058594 -40.601562 9.519531 -42.117188 7.683594 -42.117188 C 5.820312 -42.117188 4.277344 -40.601562 4.277344 -38.742188 C 4.277344 -36.878906 5.820312 -35.335938 7.683594 -35.335938 Z M 5.121094 0 L 10.1875 0 L 10.1875 -28.613281 L 5.121094 -28.613281 Z M 5.121094 0 "/></g></g></g><g fill="#ffffff" fill-opacity="1"><g transform="translate(170.709942, 208.124986)"><g><path d="M 16.882812 -40.488281 L 18.25 -40.488281 L 18.25 -44.707031 L 16.882812 -44.707031 C 11.351562 -44.707031 6.605469 -43.425781 6.605469 -34.609375 L 6.605469 -28.613281 L 1.078125 -28.613281 L 1.078125 -24.59375 L 6.605469 -24.59375 L 6.605469 0 L 11.613281 0 L 11.613281 -24.59375 L 18.25 -24.59375 L 18.25 -28.613281 L 11.613281 -28.613281 L 11.613281 -34.519531 C 11.613281 -40.546875 14.816406 -40.488281 16.882812 -40.488281 Z M 16.882812 -40.488281 "/></g></g></g><g fill="#ffffff" fill-opacity="1"><g transform="translate(189.655554, 208.124986)"><g><path d="M 5.121094 0 L 10.214844 0 L 10.214844 -44.707031 L 5.121094 -44.707031 Z M 5.121094 0 "/></g></g></g><g fill="#ffffff" fill-opacity="1"><g transform="translate(204.992479, 208.124986)"><g><path d="M 17.171875 0.582031 C 25.410156 0.582031 31.582031 -5.152344 31.582031 -14.320312 C 31.582031 -23.429688 25.4375 -29.195312 17.171875 -29.195312 C 8.9375 -29.195312 2.765625 -23.429688 2.765625 -14.320312 C 2.765625 -5.152344 9.023438 0.582031 17.171875 0.582031 Z M 17.144531 -3.636719 C 11.847656 -3.636719 7.769531 -7.828125 7.769531 -14.320312 C 7.769531 -20.78125 11.847656 -24.972656 17.144531 -24.972656 C 22.5 -24.972656 26.601562 -20.78125 26.601562 -14.320312 C 26.601562 -7.828125 22.5 -3.636719 17.144531 -3.636719 Z M 17.144531 -3.636719 "/></g></g></g><g fill="#ffffff" fill-opacity="1"><g transform="translate(239.333221, 208.124986)"><g><path d="M 40.078125 -28.613281 L 32.859375 -6.636719 L 25.089844 -28.613281 L 21.21875 -28.613281 L 13.445312 -6.695312 L 6.375 -28.613281 L 1.136719 -28.613281 L 10.828125 0.0273438 L 15.425781 0.0273438 L 23.199219 -22.035156 L 30.941406 0.0273438 L 35.511719 0.0273438 L 45.375 -28.613281 Z M 40.078125 -28.613281 "/></g></g></g></svg>